<svg width="498" height="387" viewBox="0 0 498 387" fill="none" xmlns="http://www.w3.org/2000/svg">
<g clip-path="url(#clip0)">
<path d="M356.022 42.2624C313.486 42.0818 275.257 59.2326 249 86.5564C222.743 59.2326 184.514 42.0818 141.978 42.2624C62.1055 42.6015 -1.55121 103.364 0.0287875 177.677C1.56115 249.751 64.8251 307.739 142.643 307.739C145.663 307.739 148.659 307.652 151.632 307.479C216.481 303.724 281.519 303.724 346.368 307.479C349.34 307.651 352.336 307.738 355.357 307.739C433.175 307.739 496.439 249.751 497.971 177.677C499.551 103.364 435.894 42.6015 356.022 42.2624Z" fill="#FFFBFB"/>
<path d="M329.021 3.4491C326.887 3.56046 324.829 4.21881 323.078 5.35032C321.327 6.48184 319.951 8.04178 319.106 9.85524C316.626 15.3932 319.819 21.8983 324.611 25.9367C329.403 29.975 335.558 32.2833 341.151 35.3173C348.664 39.3926 355.414 45.0497 359.173 52.3115C362.932 59.5733 363.331 68.5686 358.913 75.5061C354.812 81.9453 347.355 85.7991 340.243 89.3533" stroke="#3F3D56" stroke-miterlimit="10"/>
<path d="M335.337 7.86258C340.174 7.86258 344.095 6.10248 344.095 3.93129C344.095 1.7601 340.174 0 335.337 0C330.499 0 326.578 1.7601 326.578 3.93129C326.578 6.10248 330.499 7.86258 335.337 7.86258Z" fill="#57B894"/>
<path d="M342.343 33.7628C347.181 33.7628 351.102 32.0027 351.102 29.8316C351.102 27.6604 347.181 25.9003 342.343 25.9003C337.506 25.9003 333.585 27.6604 333.585 29.8316C333.585 32.0027 337.506 33.7628 342.343 33.7628Z" fill="#57B894"/>
<path d="M326.327 37.9253C331.165 37.9253 335.086 36.1652 335.086 33.994C335.086 31.8228 331.165 30.0627 326.327 30.0627C321.49 30.0627 317.569 31.8228 317.569 33.994C317.569 36.1652 321.49 37.9253 326.327 37.9253Z" fill="#57B894"/>
<path d="M351.353 59.6631C356.19 59.6631 360.111 57.903 360.111 55.7318C360.111 53.5606 356.19 51.8005 351.353 51.8005C346.515 51.8005 342.594 53.5606 342.594 55.7318C342.594 57.903 346.515 59.6631 351.353 59.6631Z" fill="#57B894"/>
<path d="M368.87 59.6631C373.707 59.6631 377.629 57.903 377.629 55.7318C377.629 53.5606 373.707 51.8005 368.87 51.8005C364.033 51.8005 360.111 53.5606 360.111 55.7318C360.111 57.903 364.033 59.6631 368.87 59.6631Z" fill="#57B894"/>
<path d="M375.307 132.391C373.342 131.614 371.182 131.359 369.069 131.654C366.956 131.948 364.974 132.781 363.344 134.058C358.46 138.001 358.191 145.139 360.542 150.725C362.893 156.31 367.297 160.906 370.849 165.921C375.619 172.657 378.945 180.496 378.82 188.545C378.695 196.594 374.728 204.817 367.433 209.217C360.663 213.301 352.129 213.692 344.049 213.955" stroke="#3F3D56" stroke-miterlimit="10"/>
<path d="M388.579 139.013C389.624 137.068 386.957 133.881 382.624 131.895C378.29 129.908 373.931 129.875 372.887 131.82C371.843 133.765 374.509 136.952 378.842 138.938C383.176 140.925 387.535 140.958 388.579 139.013Z" fill="#57B894"/>
<path d="M382.401 165.093C383.445 163.148 380.779 159.961 376.445 157.974C372.112 155.988 367.752 155.954 366.708 157.899C365.664 159.844 368.331 163.031 372.664 165.018C376.997 167.004 381.357 167.038 382.401 165.093Z" fill="#57B894"/>
<path d="M366.052 162.245C367.096 160.3 364.429 157.113 360.096 155.126C355.762 153.14 351.403 153.106 350.359 155.051C349.315 156.996 351.981 160.183 356.315 162.17C360.648 164.156 365.007 164.19 366.052 162.245Z" fill="#57B894"/>
<path d="M378.016 191.995C379.06 190.05 376.394 186.863 372.06 184.876C367.727 182.89 363.367 182.856 362.323 184.801C361.279 186.746 363.946 189.933 368.279 191.92C372.613 193.906 376.972 193.94 378.016 191.995Z" fill="#57B894"/>
<path d="M393.709 199.189C394.753 197.244 392.086 194.056 387.753 192.07C383.42 190.083 379.06 190.05 378.016 191.995C376.972 193.94 379.638 197.127 383.972 199.113C388.305 201.1 392.665 201.134 393.709 199.189Z" fill="#57B894"/>
<path d="M149.151 169.466C150.667 168.074 152.572 167.099 154.654 166.652C156.735 166.204 158.91 166.301 160.935 166.932C167.05 168.929 170.152 175.471 170.2 181.464C170.248 187.457 167.992 193.231 166.696 199.104C164.956 206.991 164.998 215.412 168.331 222.849C171.664 230.286 178.638 236.573 187.175 238.173C195.099 239.658 203.185 237.108 210.799 234.595" stroke="#3F3D56" stroke-miterlimit="10"/>
<path d="M148.483 176.757C151.716 173.432 152.92 169.56 151.172 168.109C149.425 166.658 145.387 168.177 142.154 171.502C138.921 174.827 137.717 178.699 139.464 180.15C141.212 181.601 145.25 180.082 148.483 176.757Z" fill="#57B894"/>
<path d="M164.648 198.884C167.881 195.559 169.085 191.687 167.338 190.236C165.59 188.785 161.552 190.304 158.319 193.629C155.086 196.954 153.882 200.826 155.63 202.277C157.377 203.728 161.415 202.209 164.648 198.884Z" fill="#57B894"/>
<path d="M178.703 190.657C181.936 187.332 183.14 183.46 181.393 182.009C179.645 180.558 175.607 182.077 172.374 185.402C169.141 188.727 167.937 192.599 169.685 194.05C171.432 195.501 175.47 193.982 178.703 190.657Z" fill="#57B894"/>
<path d="M179.475 222.387C182.708 219.062 183.912 215.19 182.165 213.739C180.417 212.288 176.379 213.807 173.146 217.132C169.913 220.457 168.709 224.329 170.457 225.78C172.204 227.231 176.242 225.712 179.475 222.387Z" fill="#57B894"/>
<path d="M167.767 234.428C171 231.103 172.204 227.231 170.457 225.78C168.709 224.329 164.671 225.848 161.438 229.173C158.205 232.498 157.001 236.37 158.749 237.821C160.496 239.272 164.534 237.753 167.767 234.428Z" fill="#57B894"/>
<path d="M350.592 116.07L349.216 125.399L340.707 182.962L326.773 277.23L323.285 300.831C323.019 302.633 322.055 304.285 320.573 305.48C319.09 306.676 317.189 307.335 315.221 307.334H222.303C220.339 307.335 218.44 306.678 216.958 305.487C215.476 304.295 214.511 302.648 214.24 300.85L210.692 277.23L196.522 182.962L187.864 125.357L186.472 116.089C186.312 115.024 186.4 113.94 186.731 112.909C187.063 111.879 187.629 110.926 188.393 110.115C189.157 109.304 190.1 108.654 191.159 108.208C192.217 107.763 193.367 107.532 194.53 107.532H342.529C343.69 107.533 344.838 107.763 345.896 108.207C346.953 108.652 347.895 109.3 348.659 110.109C349.423 110.917 349.99 111.868 350.324 112.896C350.657 113.924 350.749 115.006 350.592 116.07V116.07Z" fill="#B85A3C"/>
<path d="M333.204 82.557H204.335C199.841 82.557 196.197 85.924 196.197 90.0773V100.012C196.197 104.165 199.841 107.532 204.335 107.532H333.204C337.699 107.532 341.342 104.165 341.342 100.012V90.0773C341.342 85.924 337.699 82.557 333.204 82.557Z" fill="#2F2E41"/>
<path opacity="0.1" d="M341.343 94.3601V100.012C341.342 102.006 340.485 103.919 338.959 105.33C337.433 106.74 335.363 107.532 333.204 107.532H204.335C202.177 107.532 200.107 106.74 198.581 105.33C197.054 103.919 196.197 102.006 196.197 100.012V94.374C244.47 98.6244 293.071 98.6198 341.343 94.3601V94.3601Z" fill="black"/>
<path d="M229.981 178.989C242.143 178.989 252.003 169.878 252.003 158.639C252.003 147.4 242.143 138.289 229.981 138.289C217.818 138.289 207.959 147.4 207.959 158.639C207.959 169.878 217.818 178.989 229.981 178.989Z" fill="#2F2E41"/>
<path d="M308.059 178.989C320.222 178.989 330.081 169.878 330.081 158.639C330.081 147.4 320.222 138.289 308.059 138.289C295.897 138.289 286.037 147.4 286.037 158.639C286.037 169.878 295.897 178.989 308.059 178.989Z" fill="#2F2E41"/>
<path d="M228.98 164.189C232.297 164.189 234.986 161.704 234.986 158.639C234.986 155.574 232.297 153.089 228.98 153.089C225.663 153.089 222.974 155.574 222.974 158.639C222.974 161.704 225.663 164.189 228.98 164.189Z" fill="white"/>
<path d="M237.989 150.314C239.371 150.314 240.491 149.279 240.491 148.001C240.491 146.724 239.371 145.689 237.989 145.689C236.607 145.689 235.486 146.724 235.486 148.001C235.486 149.279 236.607 150.314 237.989 150.314Z" fill="white"/>
<path d="M308.059 164.189C311.376 164.189 314.065 161.704 314.065 158.639C314.065 155.574 311.376 153.089 308.059 153.089C304.742 153.089 302.053 155.574 302.053 158.639C302.053 161.704 304.742 164.189 308.059 164.189Z" fill="white"/>
<path d="M317.068 150.314C318.45 150.314 319.571 149.279 319.571 148.001C319.571 146.724 318.45 145.689 317.068 145.689C315.686 145.689 314.566 146.724 314.566 148.001C314.566 149.279 315.686 150.314 317.068 150.314Z" fill="white"/>
<path opacity="0.1" d="M350.129 112.389H350.13C350.128 112.383 350.125 112.377 350.122 112.372C349.908 111.854 349.633 111.36 349.301 110.898L349.3 110.897C349.202 110.761 349.098 110.629 348.991 110.499C348.955 110.456 348.918 110.413 348.881 110.37C348.569 110.009 348.222 109.674 347.844 109.371C347.76 109.303 347.675 109.236 347.587 109.172C347.489 109.099 347.39 109.028 347.289 108.96C347.161 108.875 347.03 108.794 346.897 108.715C346.792 108.653 346.687 108.593 346.579 108.535C346.412 108.446 346.242 108.362 346.068 108.283C345.985 108.246 345.9 108.212 345.816 108.177C345.649 108.109 345.48 108.046 345.308 107.988C345.238 107.965 345.17 107.939 345.1 107.918C344.862 107.844 344.618 107.781 344.37 107.727C344.309 107.714 344.247 107.705 344.186 107.694C343.983 107.655 343.777 107.623 343.568 107.598C343.493 107.59 343.418 107.581 343.341 107.574C343.074 107.549 342.804 107.532 342.529 107.532L342.529 107.532H194.53C193.368 107.536 192.221 107.769 191.164 108.215C190.107 108.662 189.166 109.312 188.403 110.122C187.64 110.932 187.073 111.883 186.74 112.911C186.407 113.94 186.315 115.023 186.472 116.087L186.707 117.65L187.864 125.357L187.865 125.357L196.523 182.962H196.522L207.888 258.577L214.241 300.849C214.512 302.647 215.476 304.294 216.958 305.486C218.439 306.678 220.337 307.334 222.302 307.334H226.711C226.493 306.809 226.339 306.262 226.253 305.705L221.974 277.23H326.773L340.707 182.962H207.805L199.286 126.279C249.195 130.02 299.362 129.725 349.215 125.399L350.592 116.07C350.775 114.826 350.616 113.56 350.129 112.389Z" fill="black"/>
<path d="M362.234 120.02C300.109 126.286 237.431 126.286 175.306 120.02C173.147 120.02 171.078 119.228 169.551 117.817C168.025 116.407 167.168 114.494 167.168 112.5V102.565C167.168 100.57 168.025 98.6574 169.551 97.2472C171.078 95.8369 173.147 95.0447 175.306 95.0447C237.381 102.098 300.158 102.098 362.234 95.0447C364.392 95.0447 366.462 95.8369 367.988 97.2472C369.514 98.6574 370.372 100.57 370.372 102.565V112.5C370.372 114.494 369.514 116.407 367.988 117.817C366.462 119.228 364.392 120.02 362.234 120.02V120.02Z" fill="#2F2E41"/>
<path d="M330.599 273.803H205.481C204.358 273.803 203.271 273.432 202.417 272.758C201.563 272.084 200.997 271.151 200.821 270.126L187.304 191.433C187.197 190.811 187.237 190.174 187.422 189.567C187.607 188.96 187.932 188.398 188.375 187.918C188.818 187.439 189.369 187.054 189.988 186.79C190.608 186.526 191.282 186.389 191.964 186.389H345.017C345.704 186.389 346.382 186.528 347.004 186.795C347.627 187.062 348.179 187.451 348.622 187.935C349.065 188.42 349.388 188.988 349.569 189.6C349.75 190.211 349.784 190.852 349.67 191.478L335.251 270.17C335.065 271.186 334.496 272.108 333.644 272.773C332.793 273.438 331.714 273.803 330.599 273.803Z" fill="#2F2E41"/>
<path d="M316.362 217.711C316.952 217.81 317.502 218.055 317.954 218.419C318.406 218.783 318.743 219.253 318.93 219.78C319.117 220.306 319.147 220.87 319.017 221.411C318.887 221.952 318.601 222.45 318.19 222.854C310.252 230.673 291.004 246.977 268.52 246.977C246.035 246.977 226.787 230.673 218.849 222.854C218.438 222.45 218.152 221.952 218.022 221.411C217.892 220.87 217.922 220.306 218.109 219.78C218.296 219.253 218.633 218.783 219.085 218.419C219.537 218.055 220.087 217.81 220.677 217.711C252.307 212.333 284.732 212.333 316.362 217.711H316.362Z" fill="#6C63FF"/>
<path d="M293.544 222.587C294.153 222.677 294.724 222.921 295.192 223.293C295.66 223.664 296.007 224.149 296.195 224.692C296.383 225.235 296.404 225.816 296.256 226.369C296.108 226.923 295.796 227.428 295.356 227.828C289.98 232.671 279.975 239.975 268.52 239.975C257.064 239.975 247.059 232.671 241.683 227.828C241.243 227.428 240.931 226.923 240.783 226.369C240.635 225.816 240.656 225.235 240.844 224.692C241.032 224.149 241.379 223.664 241.847 223.293C242.315 222.921 242.886 222.677 243.495 222.587C260.065 220.044 276.974 220.044 293.544 222.587Z" fill="white"/>
<path d="M63.3138 307.565H409.161" stroke="#3F3D56" stroke-miterlimit="10"/>
<path d="M91.9185 264.758V277.769L99.1485 285.505C99.1485 285.505 102.193 284.45 102.193 277.417L103.334 267.22L91.9185 264.758Z" fill="#A0616A"/>
<path d="M99.1485 277.769C99.1485 277.769 87.3521 270.384 86.9716 267.923C86.5911 265.462 69.848 254.209 72.5116 261.242C75.1753 268.275 83.5469 271.439 83.5469 271.439C83.5469 271.439 90.0158 287.615 95.7237 287.263C101.432 286.911 101.432 280.23 99.1485 277.769Z" fill="#A0616A"/>
<path d="M105.998 356.887L107.139 363.216L101.051 361.81V356.887H105.998Z" fill="#3F3D56"/>
<path d="M104.856 360.403C104.856 360.403 97.8195 356.551 97.5327 358.301C97.2459 360.052 94.2016 366.733 92.6795 367.436C91.1574 368.139 89.2548 375.875 92.6795 375.524C95.332 375.251 105.061 370.549 109.313 368.443C109.837 368.182 110.232 367.746 110.418 367.224C110.604 366.702 110.566 366.134 110.312 365.637C110.063 365.21 109.891 364.749 109.803 364.271C109.803 363.568 104.856 360.403 104.856 360.403Z" fill="#2F2E41"/>
<path d="M108.281 289.021C108.281 289.021 80.5026 300.977 83.1663 310.119C85.83 319.262 95.7237 357.942 95.7237 357.942C95.7237 357.942 106.759 360.403 107.52 357.942C108.281 355.48 100.29 317.152 101.051 315.746C101.812 314.339 115.892 305.196 115.892 305.196L144.812 293.944L132.635 283.395L108.281 289.021Z" fill="#2F2E41"/>
<path d="M87.3521 358.997L83.9271 367.085L90.0157 369.546L93.821 363.216L87.3521 358.997Z" fill="#3F3D56"/>
<path d="M107.901 231.353C107.901 231.353 111.325 235.572 108.662 237.682C105.998 239.792 107.901 247.528 107.901 247.528L111.325 256.319L125.024 253.858V239.44L124.263 232.408C124.263 232.408 117.414 226.43 116.653 221.859C115.892 217.287 107.901 231.353 107.901 231.353Z" fill="#A0616A"/>
<path opacity="0.1" d="M107.901 231.353C107.901 231.353 111.325 235.572 108.662 237.682C105.998 239.792 107.901 247.528 107.901 247.528L111.325 256.319L125.024 253.858V239.44L124.263 232.408C124.263 232.408 117.414 226.43 116.653 221.859C115.892 217.287 107.901 231.353 107.901 231.353Z" fill="black"/>
<path d="M130.732 286.208C130.732 286.208 112.847 304.493 112.847 305.196C112.847 305.9 103.334 320.317 103.334 320.317L84.6885 358.645C84.6885 358.645 91.9185 367.788 94.9627 367.084C98.0069 366.381 119.697 325.591 119.697 325.591C119.697 325.591 123.502 316.449 133.776 314.339C144.05 312.229 152.042 304.845 148.236 296.405C144.431 287.966 130.732 286.208 130.732 286.208Z" fill="#2F2E41"/>
<path d="M107.9 233.814C114.626 233.814 120.077 228.776 120.077 222.562C120.077 216.347 114.626 211.309 107.9 211.309C101.175 211.309 95.7236 216.347 95.7236 222.562C95.7236 228.776 101.175 233.814 107.9 233.814Z" fill="#A0616A"/>
<path d="M108.281 240.847C108.281 240.847 109.803 248.935 111.325 249.638C112.847 250.341 113.989 252.803 117.414 249.286C120.838 245.77 123.883 238.737 123.883 238.737L135.679 252.099L136.82 289.021C136.82 289.021 123.502 285.856 119.316 289.021C115.131 292.186 105.998 291.834 105.998 291.834L107.901 284.802L106.378 272.846L106.759 261.945L107.139 254.209L108.281 240.847Z" fill="#F2F2F2"/>
<path d="M109.621 234.928C109.621 234.928 104.476 237.33 104.095 238.737C103.715 240.144 96.8652 242.957 96.8652 242.957C96.8652 242.957 94.2015 245.418 94.2015 246.825C94.2015 248.231 103.334 264.407 103.334 264.407C103.334 264.407 105.237 275.307 104.476 277.417C103.715 279.527 105.998 287.615 105.998 287.615L101.432 292.537H105.617C105.617 292.537 110.184 290.428 110.184 289.373C110.184 288.318 109.423 280.933 109.042 277.769C108.662 274.604 108.662 263.352 109.423 259.484C110.184 255.616 109.803 245.418 109.803 242.957C109.803 240.495 109.621 234.928 109.621 234.928Z" fill="#3F3D56"/>
<path d="M121.409 229.589C121.409 229.589 123.122 229.946 128.068 231.353C133.015 232.759 140.626 234.869 143.289 237.682C145.159 239.763 146.815 241.999 148.236 244.363L146.714 269.681C146.714 269.681 149.758 274.956 149.378 277.769C148.997 280.582 145.953 280.933 148.236 286.911C150.519 292.889 155.086 298.164 150.9 298.867C146.714 299.57 135.679 297.109 130.732 298.515C125.785 299.922 120.077 293.241 120.077 293.241C120.077 293.241 127.688 293.944 126.546 291.131C125.405 288.318 112.847 256.671 115.511 249.638C118.175 242.605 121.409 229.589 121.409 229.589Z" fill="#3F3D56"/>
<path d="M96.1042 245.067L94.2016 246.473C94.2016 246.473 88.8742 264.055 90.3963 265.813C91.9184 267.571 104.095 271.439 104.856 268.978C105.617 266.516 96.1042 245.067 96.1042 245.067Z" fill="#3F3D56"/>
<path d="M152.422 257.374C152.422 257.374 158.13 272.494 158.13 276.714C158.13 280.933 157.369 305.548 157.369 305.548C157.369 305.548 156.988 316.097 148.997 311.878C141.006 307.658 148.997 304.845 148.997 304.845C148.997 304.845 148.617 277.065 145.572 273.197C142.528 269.329 141.387 263.703 141.387 263.703L152.422 257.374Z" fill="#A0616A"/>
<path d="M90.0158 366.733C90.0158 366.733 84.308 363.92 83.1664 366.03C82.0248 368.139 75.9364 379.743 76.6974 381.15C77.4585 382.557 81.6443 388.183 86.5911 386.776C91.5379 385.37 91.9184 377.985 91.9184 377.985L92.299 369.546L90.0158 366.733Z" fill="#2F2E41"/>
<path d="M105.516 219.844C106.355 220.209 107.35 220.427 107.877 221.131C108.268 221.654 108.306 222.332 108.591 222.91C108.902 223.482 109.438 223.923 110.088 224.142C110.739 224.362 111.456 224.345 112.093 224.093C112.248 223.393 112.689 222.774 113.324 222.365C113.644 222.17 114.024 222.076 114.408 222.095C114.791 222.114 115.157 222.247 115.453 222.473C116.237 223.164 115.959 224.369 116.325 225.312C116.669 225.975 117.142 226.574 117.72 227.079C118.553 227.967 119.216 229.008 120.219 229.73C121.222 230.453 122.743 230.766 123.74 230.036C124.578 229.422 124.751 228.289 124.548 227.319C124.344 226.349 123.84 225.456 123.555 224.503C122.63 221.408 124.105 218.104 123.649 214.921C123.064 210.843 119.313 207.621 115.126 206.223C113.383 205.567 111.476 205.38 109.623 205.684C107.708 206.079 106.072 207.206 104.238 207.85C102.277 208.539 100.145 208.659 98.0921 209.062C96.0397 209.465 93.9277 210.244 92.7366 211.84C91.9059 212.953 91.6204 214.336 90.932 215.529C90.1395 216.892 88.8559 217.954 87.304 218.533L89.4735 218.419C89.1099 219.314 88.5167 220.114 87.7449 220.75C88.7622 220.942 89.8198 220.813 90.7483 220.383C90.7315 220.795 90.6235 221.2 90.4309 221.572C90.2383 221.944 89.9652 222.275 89.6286 222.546C91.298 222.5 93.0586 222.429 94.4693 221.602C95.1603 221.197 95.7237 220.634 96.374 220.175C97.76 219.197 99.4795 218.733 101.156 218.288C102.036 218.055 103.095 217.73 103.891 218.253C104.554 218.689 104.659 219.471 105.516 219.844Z" fill="#2F2E41"/>
<path d="M142.528 240.144L148.236 244.363L155.847 260.539C155.847 260.539 145.192 268.275 142.528 267.22C139.865 266.165 135.298 247.528 135.298 247.528L142.528 240.144Z" fill="#3F3D56"/>
<path d="M85.7914 256.48L85.696 257.126L85.1065 261.115L84.141 267.646L83.8993 269.282C83.8809 269.406 83.8141 269.521 83.7114 269.604C83.6087 269.687 83.477 269.732 83.3406 269.732H76.9026C76.7665 269.732 76.6349 269.687 76.5322 269.604C76.4295 269.522 76.3627 269.408 76.3439 269.283L76.098 267.646L75.1163 261.115L74.5163 257.123L74.42 256.481C74.4088 256.408 74.4149 256.332 74.4379 256.261C74.4608 256.19 74.5001 256.124 74.553 256.067C74.6059 256.011 74.6713 255.966 74.7446 255.935C74.818 255.904 74.8977 255.888 74.9783 255.888H85.2327C85.3132 255.888 85.3927 255.904 85.466 255.935C85.5392 255.966 85.6045 256.011 85.6574 256.067C85.7104 256.123 85.7497 256.189 85.7728 256.26C85.7959 256.331 85.8022 256.406 85.7914 256.48Z" fill="#6C63FF"/>
<path d="M84.5866 254.158H75.6576C75.3462 254.158 75.0938 254.391 75.0938 254.679V255.367C75.0938 255.655 75.3462 255.888 75.6576 255.888H84.5866C84.898 255.888 85.1505 255.655 85.1505 255.367V254.679C85.1505 254.391 84.898 254.158 84.5866 254.158Z" fill="#2F2E41"/>
<path d="M86.598 256.754C82.2935 257.188 77.9507 257.188 73.6462 256.754C73.5722 256.754 73.4989 256.74 73.4305 256.714C73.3621 256.688 73.2999 256.65 73.2475 256.601C73.1952 256.553 73.1537 256.495 73.1253 256.432C73.097 256.369 73.0824 256.301 73.0824 256.233V255.544C73.0824 255.406 73.1418 255.274 73.2475 255.176C73.3533 255.078 73.4967 255.023 73.6462 255.023C77.9473 255.512 82.2969 255.512 86.598 255.023C86.7475 255.023 86.891 255.078 86.9967 255.176C87.1024 255.274 87.1619 255.406 87.1619 255.544V256.233C87.1619 256.371 87.1024 256.503 86.9967 256.601C86.891 256.699 86.7475 256.754 86.598 256.754Z" fill="#2F2E41"/>
<path d="M84.4061 267.409H75.737C75.6592 267.409 75.5839 267.383 75.5247 267.337C75.4655 267.29 75.4263 267.225 75.4141 267.154L74.4776 261.702C74.4701 261.659 74.4729 261.615 74.4858 261.572C74.4986 261.53 74.5211 261.491 74.5518 261.458C74.5825 261.425 74.6206 261.398 74.6635 261.38C74.7065 261.362 74.7532 261.352 74.8004 261.352H85.4051C85.4526 261.352 85.4996 261.362 85.5428 261.38C85.5859 261.399 85.6241 261.426 85.6548 261.459C85.6855 261.493 85.7079 261.532 85.7204 261.575C85.733 261.617 85.7354 261.662 85.7274 261.705L84.7284 267.157C84.7155 267.228 84.6761 267.292 84.6171 267.338C84.5581 267.384 84.4834 267.409 84.4061 267.409Z" fill="#2F2E41"/>
</g>
<defs>
<clipPath id="clip0">
<rect width="498" height="387" fill="white"/>
</clipPath>
</defs>
</svg>
