<?xml version="1.0" standalone="no"?><svg xmlns="http://www.w3.org/2000/svg" viewBox="0 0 1440 320"><path fill="#b7583a" fill-opacity="0.99" d="M0,160L17.1,138.7C34.3,117,69,75,103,48C137.1,21,171,11,206,26.7C240,43,274,85,309,122.7C342.9,160,377,192,411,170.7C445.7,149,480,75,514,58.7C548.6,43,583,85,617,101.3C651.4,117,686,107,720,101.3C754.3,96,789,96,823,117.3C857.1,139,891,181,926,186.7C960,192,994,160,1029,149.3C1062.9,139,1097,149,1131,133.3C1165.7,117,1200,75,1234,64C1268.6,53,1303,75,1337,90.7C1371.4,107,1406,117,1423,122.7L1440,128L1440,320L1422.9,320C1405.7,320,1371,320,1337,320C1302.9,320,1269,320,1234,320C1200,320,1166,320,1131,320C1097.1,320,1063,320,1029,320C994.3,320,960,320,926,320C891.4,320,857,320,823,320C788.6,320,754,320,720,320C685.7,320,651,320,617,320C582.9,320,549,320,514,320C480,320,446,320,411,320C377.1,320,343,320,309,320C274.3,320,240,320,206,320C171.4,320,137,320,103,320C68.6,320,34,320,17,320L0,320Z"></path></svg>