<svg width="1440" height="189" viewBox="0 0 1440 189" fill="none" xmlns="http://www.w3.org/2000/svg">
<g clip-path="url(#clip0)">
<path d="M1444.86 94.4007L1427.57 106.86C1410.18 119.554 1375.09 144.116 1340.76 159.847C1306.32 175.577 1272.14 181.294 1236.92 171.867C1202.72 162.092 1168.59 137.179 1133.44 114.793C1099.4 92.6492 1065.14 73.6258 1030.82 85.9986C995.795 98.6035 961.017 142.017 926.714 151.445C891.809 160.516 857.277 135.601 823.071 125.826C788.461 116.402 753.572 122.116 719.301 125.3C684.729 128.246 649.769 128.069 615.579 115.349C581.288 102.393 547.26 77.4798 512.016 73.9435C477.777 70.6479 443.427 89.3235 408.134 95.4474C373.949 101.341 339.624 95.2768 305.323 104.351C270.315 113.775 235.633 138.339 201.346 144.645C166.454 150.948 131.863 137.813 97.6555 128.392C63.0469 118.615 28.218 112.548 11.1079 109.103L-6.00337 105.895L-5.42998 -7.20063L11.7978 -7.11329C29.1265 -7.02544 64.086 -6.84819 98.3403 -6.67453C132.695 -6.50035 166.849 -6.32719 202.11 -6.14842C236.365 -5.97475 270.619 -5.80109 305.881 -5.62231C340.034 -5.44916 374.389 -5.27498 408.643 -5.10131C443.603 -4.92407 478.159 -4.74887 512.414 -4.5752C547.272 -4.39847 581.93 -4.22276 616.184 -4.0491C650.841 -3.87339 685.7 -3.69666 719.954 -3.52299C754.511 -3.34779 789.47 -3.17055 823.724 -2.99688C858.079 -2.8227 892.233 -2.64955 927.495 -2.47077C961.749 -2.29711 996.003 -2.12344 1031.26 -1.94467C1065.42 -1.77151 1099.77 -1.59733 1134.03 -1.42367C1168.99 -1.24643 1203.54 -1.07123 1237.8 -0.89756C1272.66 -0.720829 1307.31 -0.545119 1341.57 -0.371452C1376.23 -0.195743 1411.08 -0.0190114 1428.21 0.0678219L1445.34 0.154655L1444.86 94.4007Z" fill="#B7583A" fill-opacity="0.99"/>
</g>
<defs>
<clipPath id="clip0">
<rect x="1444.38" y="188.646" width="1450.79" height="188.494" transform="rotate(-179.71 1444.38 188.646)" fill="white"/>
</clipPath>
</defs>
</svg>
